<?xml version="1.0" encoding="iso-8859-1"?>
<!-- Generator: Adobe Illustrator 24.1.0, SVG Export Plug-In . SVG Version: 6.00 Build 0)  -->
<svg version="1.1" xmlns="http://www.w3.org/2000/svg" xmlns:xlink="http://www.w3.org/1999/xlink" x="0px" y="0px"
	 viewBox="0 0 512 512" style="enable-background:new 0 0 512 512;" xml:space="preserve">
<g id="_x30_9_x2C__Linkedin_Popular_Social_Media_Icon">
	<g>
		<path style="fill:#0063BF;" d="M411.8,511H100.2c-54.589,0-99-44.411-99-99V100c0-54.589,44.411-99,99-99h311.6
			c54.589,0,99,44.411,99,99v312C510.8,466.589,466.389,511,411.8,511z"/>
		<rect x="90.8" y="191" style="fill:#FFFFFF;" width="60" height="220"/>
		<circle style="fill:#FFFFFF;" cx="120.8" cy="121" r="30"/>
		<path style="fill:#FFFFFF;" d="M310.8,201c-2.359,0.292-24.36-1.112-50,11.995V191h-60c0,33.189,0,186.917,0,220h60
			c0-14.859,0-95.53,0-100c0-27.614,22.386-50,50-50h0c27.614,0,50,22.386,50,50v100h60V311C420.8,250.249,371.551,201,310.8,201z"
			/>
	</g>
</g>
<g id="Layer_1">
</g>
</svg>
